<svg xmlns="http://www.w3.org/2000/svg" style="display: none;">
  <symbol id="arrow-to-right" viewBox="0 0 25 9">
    <path fill="currentColor" d="M0 4.99124V3.74124C0 3.39606 0.279908 3.11624 0.625193 3.11624H20.0062V0.616238C20.0097 0.366191 20.1619 0.142308 20.3933 0.0470931C20.6246 -0.0481216 20.8904 0.00366328 21.069 0.178738L24.8201 3.92874C25.0599 4.17601 25.0599 4.56897 24.8201 4.81624L21.069 8.56624C20.8887 8.74287 20.6199 8.79382 20.3875 8.69542C20.1551 8.59702 20.0047 8.36856 20.0062 8.11624V5.61624H0.625193C0.279908 5.61624 0 5.33642 0 4.99124Z" />
  </symbol>
  <symbol id="search" viewBox="0 0 21 21">
    <path fill="black" fill-rule="evenodd" clip-rule="evenodd" d="M15.6431 14.1474L19.8645 18.3747C20.053 18.5844 20.0437 18.9055 19.8434 19.1039L19.1047 19.8437C19.0056 19.9437 18.8707 20 18.73 20C18.5893 20 18.4544 19.9437 18.3553 19.8437L14.1339 15.6164C14.0172 15.4994 13.9112 15.372 13.8173 15.2359L13.0258 14.1791C11.7162 15.2263 10.0898 15.7965 8.41388 15.796C4.96034 15.808 1.95934 13.4224 1.18757 10.0515C0.415791 6.68058 2.07921 3.22404 5.19304 1.72824C8.30686 0.232444 12.0401 1.0966 14.1825 3.8091C16.3249 6.5216 16.3047 10.3585 14.1339 13.0483L15.1893 13.7775C15.3541 13.8831 15.5063 14.0072 15.6431 14.1474ZM3.13727 8.39798C3.13727 11.3163 5.49977 13.6821 8.41405 13.6821C9.81355 13.6821 11.1557 13.1254 12.1453 12.1344C13.1349 11.1435 13.6908 9.79942 13.6908 8.39798C13.6908 5.47963 11.3283 3.11384 8.41405 3.11384C5.49977 3.11384 3.13727 5.47963 3.13727 8.39798Z" />
    <path fill="white" d="M19.8645 18.3747L20.1434 18.124L20.1368 18.1167L20.1299 18.1097L19.8645 18.3747ZM15.6431 14.1474L15.3746 14.4093L15.3777 14.4124L15.6431 14.1474ZM19.8434 19.1039L19.5795 18.8375L19.5781 18.8389L19.8434 19.1039ZM19.1047 19.8437L18.8393 19.5787L18.8382 19.5798L19.1047 19.8437ZM18.3553 19.8437L18.6218 19.5798L18.6207 19.5787L18.3553 19.8437ZM14.1339 15.6164L13.8685 15.8813L13.8686 15.8814L14.1339 15.6164ZM13.8173 15.2359L14.126 15.023L14.1218 15.017L14.1175 15.0111L13.8173 15.2359ZM13.0258 14.1791L13.3259 13.9543L13.0939 13.6445L12.7916 13.8862L13.0258 14.1791ZM8.41388 15.796L8.41399 15.421L8.41258 15.421L8.41388 15.796ZM1.18757 10.0515L0.822025 10.1352L1.18757 10.0515ZM5.19304 1.72824L5.03066 1.39022L5.19304 1.72824ZM14.1825 3.8091L13.8882 4.04153L14.1825 3.8091ZM14.1339 13.0483L13.8421 12.8128L13.5884 13.1272L13.9207 13.3568L14.1339 13.0483ZM15.1893 13.7775L14.976 14.0862L14.9869 14.0932L15.1893 13.7775ZM12.1453 12.1344L12.4107 12.3994L12.1453 12.1344ZM20.1299 18.1097L15.9084 13.8824L15.3777 14.4124L19.5992 18.6397L20.1299 18.1097ZM20.1073 19.3703C20.4498 19.0311 20.4656 18.4825 20.1434 18.124L19.5856 18.6254C19.6404 18.6864 19.6377 18.7799 19.5795 18.8375L20.1073 19.3703ZM19.37 20.1087L20.1088 19.3689L19.5781 18.8389L18.8393 19.5787L19.37 20.1087ZM18.73 20.375C18.9709 20.375 19.2016 20.2787 19.3711 20.1076L18.8382 19.5798C18.8095 19.6088 18.7705 19.625 18.73 19.625V20.375ZM18.0889 20.1076C18.2584 20.2787 18.4891 20.375 18.73 20.375V19.625C18.6895 19.625 18.6505 19.6088 18.6218 19.5798L18.0889 20.1076ZM13.8686 15.8814L18.09 20.1087L18.6207 19.5787L14.3993 15.3514L13.8686 15.8814ZM13.5086 15.4489C13.6153 15.6035 13.7358 15.7483 13.8685 15.8813L14.3994 15.3515C14.2986 15.2505 14.2071 15.1405 14.126 15.023L13.5086 15.4489ZM12.7256 14.4039L13.5172 15.4607L14.1175 15.0111L13.3259 13.9543L12.7256 14.4039ZM8.41377 16.171C10.1749 16.1716 11.8839 15.5724 13.26 14.472L12.7916 13.8862C11.5484 14.8803 10.0047 15.4215 8.41399 15.421L8.41377 16.171ZM0.822025 10.1352C1.63286 13.6767 4.78595 16.1837 8.41518 16.171L8.41258 15.421C5.13473 15.4324 2.28583 13.1681 1.55311 9.96781L0.822025 10.1352ZM5.03066 1.39022C1.75868 2.96199 0.0112115 6.59377 0.822025 10.1352L1.55311 9.96781C0.82037 6.7674 2.39975 3.48609 5.35541 2.06626L5.03066 1.39022ZM14.4767 3.57667C12.2257 0.726579 8.3028 -0.181627 5.03066 1.39022L5.35541 2.06626C8.31092 0.646515 11.8544 1.46661 13.8882 4.04153L14.4767 3.57667ZM14.4257 13.2838C16.7065 10.4578 16.7277 6.42659 14.4767 3.57667L13.8882 4.04153C15.922 6.61661 15.9029 10.2593 13.8421 12.8128L14.4257 13.2838ZM15.4024 13.469L14.3471 12.7398L13.9207 13.3568L14.9761 14.086L15.4024 13.469ZM15.9115 13.8855C15.7549 13.725 15.5804 13.5828 15.3916 13.4618L14.9869 14.0932C15.1277 14.1835 15.2578 14.2895 15.3747 14.4093L15.9115 13.8855ZM8.41405 13.3071C5.70736 13.3071 3.51227 11.1097 3.51227 8.39798H2.76227C2.76227 11.5229 5.29217 14.0571 8.41405 14.0571V13.3071ZM11.88 11.8695C10.9607 12.79 9.71392 13.3071 8.41405 13.3071V14.0571C9.91317 14.0571 11.3508 13.4608 12.4107 12.3994L11.88 11.8695ZM13.3158 8.39798C13.3158 9.70014 12.7993 10.9489 11.88 11.8695L12.4107 12.3994C13.4705 11.3381 14.0658 9.89871 14.0658 8.39798H13.3158ZM8.41405 3.48884C11.1207 3.48884 13.3158 5.68625 13.3158 8.39798H14.0658C14.0658 5.27302 11.5359 2.73884 8.41405 2.73884V3.48884ZM3.51227 8.39798C3.51227 5.68625 5.70736 3.48884 8.41405 3.48884V2.73884C5.29217 2.73884 2.76227 5.27302 2.76227 8.39798H3.51227Z" />
  </symbol>
  <symbol id="cart" viewBox="0 0 21 21">
    <path fill="currentColor" d="M6.76598 13.5766H6.76694C6.76775 13.5766 6.76855 13.5764 6.76935 13.5764H17.9238C18.1984 13.5764 18.4399 13.3942 18.5154 13.1302L20.9763 4.51693C21.0293 4.33124 20.9922 4.13161 20.876 3.97748C20.7597 3.82335 20.5778 3.73267 20.3848 3.73267H5.3471L4.9073 1.7535C4.84466 1.472 4.59504 1.27173 4.30665 1.27173H0.615242C0.275421 1.27173 7.62939e-06 1.54714 7.62939e-06 1.88696C7.62939e-06 2.22678 0.275421 2.5022 0.615242 2.5022H3.81318C3.89104 2.85291 5.91779 11.9734 6.03443 12.4982C5.38058 12.7824 4.92188 13.4343 4.92188 14.1916C4.92188 15.2093 5.74989 16.0374 6.76759 16.0374H17.9238C18.2637 16.0374 18.5391 15.7619 18.5391 15.4221C18.5391 15.0823 18.2637 14.8069 17.9238 14.8069H6.76759C6.42841 14.8069 6.15235 14.5308 6.15235 14.1916C6.15235 13.853 6.42744 13.5774 6.76598 13.5766ZM19.5691 4.96313L17.4597 12.3459H7.26105L5.62043 4.96313H19.5691Z" />
    <path fill="currentColor" d="M6.15234 17.8828C6.15234 18.9005 6.98035 19.7285 7.99805 19.7285C9.01575 19.7285 9.84375 18.9005 9.84375 17.8828C9.84375 16.8651 9.01575 16.0371 7.99805 16.0371C6.98035 16.0371 6.15234 16.8651 6.15234 17.8828ZM7.99805 17.2676C8.33723 17.2676 8.61328 17.5436 8.61328 17.8828C8.61328 18.222 8.33723 18.498 7.99805 18.498C7.65887 18.498 7.38281 18.222 7.38281 17.8828C7.38281 17.5436 7.65887 17.2676 7.99805 17.2676Z" />
    <path fill="currentColor" d="M14.8476 17.8828C14.8476 18.9005 15.6756 19.7285 16.6933 19.7285C17.711 19.7285 18.539 18.9005 18.539 17.8828C18.539 16.8651 17.711 16.0371 16.6933 16.0371C15.6756 16.0371 14.8476 16.8651 14.8476 17.8828ZM16.6933 17.2676C17.0325 17.2676 17.3086 17.5436 17.3086 17.8828C17.3086 18.222 17.0325 18.498 16.6933 18.498C16.3541 18.498 16.0781 18.222 16.0781 17.8828C16.0781 17.5436 16.3541 17.2676 16.6933 17.2676Z" />
  </symbol>
  <symbol id="user" viewBox="0 0 22 22">
    <path fill="black" fill-rule="evenodd" clip-rule="evenodd" d="M16.0015 6C16.0015 8.76142 13.7623 11 11 11C8.23777 11 5.99851 8.76142 5.99851 6C5.99851 3.23858 8.23777 1 11 1C13.7623 1 16.0015 3.23858 16.0015 6ZM14.001 5.99999C14.001 4.34314 12.6575 2.99999 11.0001 2.99999C9.34275 2.99999 7.99919 4.34314 7.99919 5.99999C7.99919 7.65684 9.34275 8.99999 11.0001 8.99999C12.6575 8.99999 14.001 7.65684 14.001 5.99999ZM20.893 19.55L19.0024 15.76C18.1545 14.0683 16.4239 13.0001 14.5311 13H7.46893C5.57614 13.0001 3.84555 14.0683 2.99758 15.76L1.10701 19.55C0.950991 19.8595 0.966419 20.2277 1.14778 20.5231C1.32915 20.8185 1.65058 20.9989 1.99728 21H20.0027C20.3494 20.9989 20.6709 20.8185 20.8522 20.5231C21.0336 20.2277 21.049 19.8595 20.893 19.55ZM4.78818 16.66L3.61782 19H18.3823L17.2119 16.66C16.7046 15.644 15.667 15.0015 14.5311 15H7.46899C6.33315 15.0015 5.29552 15.644 4.78818 16.66Z" />
    <path fill="white" d="M19.0024 15.76L19.4498 15.5368L19.4494 15.5359L19.0024 15.76ZM20.893 19.55L20.4456 19.7732L20.4465 19.775L20.893 19.55ZM14.5311 13L14.5311 12.5H14.5311V13ZM7.46893 13V12.5H7.46891L7.46893 13ZM2.99758 15.76L2.55059 15.5359L2.55016 15.5368L2.99758 15.76ZM1.10701 19.55L1.5535 19.775L1.55443 19.7732L1.10701 19.55ZM1.14778 20.5231L0.721686 20.7847L1.14778 20.5231ZM1.99728 21L1.99577 21.5H1.99728V21ZM20.0027 21V21.5L20.0042 21.5L20.0027 21ZM3.61782 19L3.17064 18.7763L2.8087 19.5H3.61782V19ZM4.78818 16.66L5.23536 16.8836L5.2355 16.8834L4.78818 16.66ZM18.3823 19V19.5H19.1914L18.8295 18.7763L18.3823 19ZM17.2119 16.66L16.7646 16.8834L16.7647 16.8836L17.2119 16.66ZM14.5311 15L14.5318 14.5H14.5311V15ZM7.46899 15V14.5H7.46831L7.46899 15ZM11 11.5C14.0383 11.5 16.5015 9.03771 16.5015 6H15.5015C15.5015 8.48514 13.4863 10.5 11 10.5V11.5ZM5.49851 6C5.49851 9.03771 7.96177 11.5 11 11.5V10.5C8.51377 10.5 6.49851 8.48514 6.49851 6H5.49851ZM11 0.5C7.96177 0.5 5.49851 2.96229 5.49851 6H6.49851C6.49851 3.51486 8.51377 1.5 11 1.5V0.5ZM16.5015 6C16.5015 2.96229 14.0383 0.5 11 0.5V1.5C13.4863 1.5 15.5015 3.51486 15.5015 6H16.5015ZM11.0001 3.49999C12.3815 3.49999 13.501 4.61942 13.501 5.99999H14.501C14.501 4.06685 12.9335 2.49999 11.0001 2.49999V3.49999ZM8.49919 5.99999C8.49919 4.61942 9.61875 3.49999 11.0001 3.49999V2.49999C9.06675 2.49999 7.49919 4.06685 7.49919 5.99999H8.49919ZM11.0001 8.49999C9.61875 8.49999 8.49919 7.38056 8.49919 5.99999H7.49919C7.49919 7.93313 9.06675 9.49999 11.0001 9.49999V8.49999ZM13.501 5.99999C13.501 7.38056 12.3815 8.49999 11.0001 8.49999V9.49999C12.9335 9.49999 14.501 7.93313 14.501 5.99999H13.501ZM18.555 15.9832L20.4456 19.7732L21.3404 19.3268L19.4498 15.5368L18.555 15.9832ZM14.5311 13.5C16.2347 13.5 17.7923 14.4615 18.5554 15.984L19.4494 15.5359C18.5166 13.675 16.613 12.5001 14.5311 12.5L14.5311 13.5ZM7.46893 13.5H14.5311V12.5H7.46893V13.5ZM3.44457 15.984C4.20773 14.4615 5.7653 13.5 7.46895 13.5L7.46891 12.5C5.38699 12.5001 3.48337 13.675 2.55059 15.5359L3.44457 15.984ZM1.55443 19.7732L3.445 15.9832L2.55016 15.5368L0.659585 19.3268L1.55443 19.7732ZM1.57388 20.2615C1.48321 20.1138 1.4755 19.9298 1.55349 19.775L0.660521 19.3249C0.426479 19.7892 0.449627 20.3416 0.721686 20.7847L1.57388 20.2615ZM1.99879 20.5C1.82532 20.4995 1.66456 20.4092 1.57388 20.2615L0.721686 20.7847C0.993735 21.2278 1.47584 21.4984 1.99577 21.5L1.99879 20.5ZM20.0027 20.5H1.99728V21.5H20.0027V20.5ZM20.4261 20.2615C20.3354 20.4092 20.1747 20.4995 20.0012 20.5L20.0042 21.5C20.5242 21.4984 21.0063 21.2278 21.2783 20.7847L20.4261 20.2615ZM20.4465 19.775C20.5245 19.9298 20.5168 20.1138 20.4261 20.2615L21.2783 20.7847C21.5504 20.3416 21.5735 19.7892 21.3395 19.3249L20.4465 19.775ZM4.06501 19.2236L5.23536 16.8836L4.34099 16.4363L3.17064 18.7763L4.06501 19.2236ZM18.3823 18.5H3.61782V19.5H18.3823V18.5ZM16.7647 16.8836L17.9351 19.2236L18.8295 18.7763L17.6591 16.4363L16.7647 16.8836ZM14.5304 15.5C15.4771 15.5013 16.3418 16.0368 16.7646 16.8834L17.6593 16.4366C17.0673 15.2513 15.8568 14.5018 14.5318 14.5L14.5304 15.5ZM7.46899 15.5H14.5311V14.5H7.46899V15.5ZM5.2355 16.8834C5.65828 16.0368 6.523 15.5013 7.46967 15.5L7.46831 14.5C6.14329 14.5018 4.93277 15.2513 4.34085 16.4366L5.2355 16.8834Z" />
  </symbol>
  <symbol id="eye" viewBox="0 0 32 18">
    <path fill="black" stroke="black" stroke-width="0.3" d="M2.12496 9L3.76246 10.6375C10.5125 17.3875 21.4937 17.3875 28.2437 10.6375L29.875 9L28.2375 7.3625C21.4875 0.6125 10.5062 0.6125 3.75621 7.3625L2.12496 9ZM16 16.8875C11.2625 16.8875 6.52496 15.0813 2.91871 11.475L0.862463 9.41875C0.631213 9.1875 0.631213 8.8125 0.862463 8.575L2.91871 6.51875C10.1312 -0.69375 21.8687 -0.69375 29.0812 6.51875L31.1375 8.575C31.3687 8.80625 31.3687 9.18125 31.1375 9.41875L29.0812 11.475C25.475 15.0813 20.7375 16.8875 16 16.8875Z" />
    <path fill="black" stroke="black" stroke-width="0.3" d="M16 4.46875C13.5 4.46875 11.4687 6.5 11.4687 9C11.4687 11.5 13.5 13.5312 16 13.5312C18.5 13.5312 20.5312 11.5 20.5312 9C20.5312 6.5 18.5 4.46875 16 4.46875ZM16 14.7188C12.8437 14.7188 10.2812 12.15 10.2812 9C10.2812 5.84375 12.85 3.28125 16 3.28125C19.15 3.28125 21.7187 5.85 21.7187 9C21.7187 12.1562 19.1562 14.7188 16 14.7188Z" />
  </symbol>
  <symbol id="like" viewBox="0 0 25 23">
    <path fill="currentColor" stroke="currentColor" stroke-width="0.3" d="M11.3428 22.1291C11.6538 22.44 12.0718 22.6134 12.5102 22.6134C12.9435 22.6134 13.3717 22.4349 13.6776 22.1291L22.8385 12.9682C24.2302 11.5764 24.9949 9.72591 25 7.76323C25 5.79545 24.2353 3.94492 22.8436 2.5532C21.4519 1.16147 19.6064 0.396792 17.6387 0.396792C15.7066 0.396792 13.8866 1.13599 12.5051 2.48183C11.1185 1.13089 9.29343 0.386597 7.35624 0.386597C5.39356 0.386597 3.54812 1.15128 2.1564 2.5379C0.764682 3.92962 0 5.78015 0 7.74794C0 9.71062 0.76978 11.5611 2.1615 12.9529L11.3428 22.1291ZM3.04343 3.42493C4.19555 2.27281 5.73002 1.63558 7.36134 1.63558C8.99266 1.63558 10.5322 2.27281 11.6894 3.43003L12.0667 3.80727C12.1839 3.92453 12.342 3.9908 12.5102 3.9908C12.6733 3.9908 12.8365 3.92453 12.9537 3.80727L13.3208 3.44023C14.478 2.28301 16.0124 1.64577 17.6489 1.64577C19.2802 1.64577 20.8146 2.28301 21.9668 3.43513C23.124 4.59235 23.7561 6.12681 23.7561 7.75813C23.7561 9.38945 23.1189 10.9239 21.9617 12.0811L12.7957 21.2471C12.6478 21.395 12.3777 21.395 12.2247 21.2471L3.04853 12.0709C1.89131 10.9137 1.25408 9.37926 1.25408 7.74794C1.25408 6.11661 1.89131 4.58215 3.04343 3.42493Z" />
  </symbol>
  <symbol id="chevron-down" viewBox="0 0 14 8">
    <path fill="black" d="M12.6551 0.103514C12.7208 0.0372643 12.8103 -5.20037e-08 12.9036 -4.7925e-08C12.9969 -4.38464e-08 13.0864 0.0372643 13.1521 0.103514L13.894 0.845401C13.9616 0.908905 14 0.997568 14 1.09036C14 1.18316 13.9616 1.27182 13.894 1.33533L7.46193 7.76735C7.36358 7.86582 7.23016 7.9212 7.09099 7.92133L6.90901 7.92133C6.76984 7.9212 6.63642 7.86582 6.53807 7.76735L0.106047 1.33533C0.0383834 1.27182 9.01957e-07 1.18316 9.06013e-07 1.09036C9.10069e-07 0.997567 0.0383834 0.908904 0.106047 0.8454L0.847934 0.103513C0.913642 0.0372638 1.00309 -5.68113e-07 1.0964 -5.64034e-07C1.18971 -5.59956e-07 1.27915 0.0372638 1.34486 0.103513L7 5.75865L12.6551 0.103514Z" />
  </symbol>
  <symbol id="filters" viewBox="0 0 14 14">
    <path fill="currentColor" d="M13.2133 1.95389H5.18145C4.96063 1.29805 4.3403 0.824219 3.61095 0.824219C2.8816 0.824219 2.26127 1.29805 2.04045 1.95389H0.786743C0.495509 1.95389 0.259399 2.19 0.259399 2.48124C0.259399 2.77247 0.495509 3.00858 0.786743 3.00858H2.04049C2.2613 3.66442 2.88163 4.13826 3.61099 4.13826C4.34034 4.13826 4.96067 3.66442 5.18149 3.00858H13.2133C13.5046 3.00858 13.7407 2.77247 13.7407 2.48124C13.7407 2.19 13.5046 1.95389 13.2133 1.95389ZM3.61095 3.08357C3.27883 3.08357 3.00862 2.81336 3.00862 2.48124C3.00862 2.14912 3.27883 1.87891 3.61095 1.87891C3.94307 1.87891 4.21328 2.14912 4.21328 2.48124C4.21328 2.81336 3.94307 3.08357 3.61095 3.08357Z" />
    <path fill="currentColor" d="M13.2133 6.47269H11.9595C11.7387 5.81685 11.1184 5.34302 10.389 5.34302C9.65972 5.34302 9.03939 5.81685 8.81857 6.47269H0.786743C0.495509 6.47269 0.259399 6.7088 0.259399 7.00004C0.259399 7.29127 0.495509 7.52738 0.786743 7.52738H8.81857C9.03939 8.18322 9.65976 8.65706 10.3891 8.65706C11.1184 8.65706 11.7388 8.18322 11.9596 7.52738H13.2133C13.5046 7.52738 13.7407 7.29127 13.7407 7.00004C13.7407 6.7088 13.5046 6.47269 13.2133 6.47269ZM10.3891 7.60237C10.057 7.60237 9.78674 7.33216 9.78674 7.00004C9.78674 6.66792 10.057 6.39771 10.3891 6.39771C10.7212 6.39771 10.9914 6.66792 10.9914 7.00004C10.9914 7.33216 10.7212 7.60237 10.3891 7.60237Z" />
    <path fill="currentColor" d="M13.2133 10.9914H7.44084C7.22002 10.3355 6.59969 9.86169 5.87034 9.86169C5.14099 9.86169 4.52065 10.3355 4.29984 10.9914H0.786743C0.495509 10.9914 0.259399 11.2275 0.259399 11.5187C0.259399 11.8099 0.495509 12.0461 0.786743 12.0461H4.29984C4.52065 12.7019 5.14099 13.1757 5.87034 13.1757C6.59969 13.1757 7.22002 12.7019 7.44084 12.0461H13.2133C13.5046 12.0461 13.7407 11.8099 13.7407 11.5187C13.7407 11.2275 13.5046 10.9914 13.2133 10.9914ZM5.87034 12.1211C5.53822 12.1211 5.268 11.8509 5.268 11.5187C5.268 11.1866 5.53822 10.9164 5.87034 10.9164C6.20246 10.9164 6.47267 11.1866 6.47267 11.5187C6.47267 11.8508 6.20246 12.1211 5.87034 12.1211Z" />
  </symbol>
  <symbol id="burger" viewBox="0 0 22 17">
    <path fill="black" stroke="white" stroke-width="0.2" d="M1.62774 2.87494L20.3709 2.87494C20.7158 2.87494 20.9955 2.45491 20.9953 1.93747C20.9951 1.41995 20.715 1 20.3702 1L1.62701 1C1.28213 1 1.00242 1.42003 1.00262 1.93747C1.00282 2.45491 1.28291 2.87494 1.62774 2.87494Z" />
    <path fill="black" stroke="white" stroke-width="0.2" d="M20.3705 7.56238L1.62732 7.56238C1.28243 7.56238 1.00273 7.98241 1.00293 8.49984C1.00313 9.01728 1.28321 9.43731 1.62805 9.43731L20.3712 9.43731C20.7161 9.43731 20.9958 9.01728 20.9956 8.49985C20.9954 7.98241 20.7153 7.56238 20.3705 7.56238Z" />
    <path fill="black" stroke="white" stroke-width="0.2" d="M20.3702 14.125L7.87499 14.125C7.53011 14.125 7.2504 14.545 7.25059 15.0625C7.25078 15.58 7.53085 15.9999 7.87568 15.9999L20.3709 15.9999C20.7158 15.9999 20.9955 15.5799 20.9953 15.0625C20.9952 14.545 20.7151 14.125 20.3702 14.125Z" />
  </symbol>
  <symbol id="favorite" viewBox="0 0 20 18">
    <path fill="currentColor" fill-rule="evenodd" clip-rule="evenodd" d="M9.56899 2.01405C10.6777 0.77861 12.231 0.0520888 13.875 0C16.7817 0 19.138 2.39588 19.138 5.35135C19.138 8.85038 15.3125 12.6852 13.0182 14.9851C12.8117 15.1921 12.6175 15.3868 12.4397 15.5676L10.258 17.7859C10.1235 17.9228 9.94108 17.9998 9.7508 18H9.38718C9.19691 17.9998 9.01449 17.9228 8.88003 17.7859L6.6983 15.5676C6.52047 15.3868 6.32632 15.1921 6.11976 14.9851C3.82545 12.6852 0 8.85038 0 5.35135C0 2.39588 2.3563 0 5.26295 0C6.90699 0.0520888 8.4603 0.77861 9.56899 2.01405ZM9.56914 15.7329L11.6743 13.6215C13.6168 11.6756 17.2243 8.03664 17.2243 5.35122C17.2244 4.44297 16.8676 3.57233 16.2333 2.93285C15.599 2.29336 14.7397 1.93802 13.8465 1.9458C12.3588 2.08623 11.0159 2.91053 10.2007 4.18365C10.1094 4.30497 9.96818 4.37675 9.81794 4.37825H9.38733C9.16376 4.37763 8.95256 4.27383 8.81319 4.09608C8.01093 2.86988 6.70555 2.07922 5.26309 1.9458C3.41341 1.9458 1.91394 3.47046 1.91394 5.35122C1.91394 8.03664 5.52145 11.6756 7.46396 13.6215L9.56914 15.7329Z" />
  </symbol>
  <symbol id="notification-success" viewBox="0 0 20 20">
    <path fill-rule="evenodd" clip-rule="evenodd" d="M0 10C0 4.47715 4.47715 0 10 0C12.6522 0 15.1957 1.05357 17.0711 2.92893C18.9464 4.8043 20 7.34784 20 10C20 15.5228 15.5228 20 10 20C4.47715 20 0 15.5228 0 10ZM8.7301 13.35L14.3501 7.73004C14.5342 7.53689 14.5342 7.23319 14.3501 7.04004L13.8201 6.51004C13.6257 6.31947 13.3145 6.31947 13.1201 6.51004L8.3801 11.25L6.8801 9.76004C6.78936 9.66336 6.66268 9.60852 6.5301 9.60852C6.39751 9.60852 6.27083 9.66336 6.1801 9.76004L5.6501 10.29C5.55544 10.3839 5.5022 10.5117 5.5022 10.645C5.5022 10.7784 5.55544 10.9062 5.6501 11L8.0301 13.35C8.12083 13.4467 8.24751 13.5016 8.3801 13.5016C8.51268 13.5016 8.63936 13.4467 8.7301 13.35Z" fill="#A18A68" />
  </symbol>
  <symbol id="cross" viewBox="0 0 18 18">
    <path d="M1 1.24459L16.7554 17M1 16.7554L16.7554 1" stroke="black" stroke-width="1.5" />
  </symbol>
  <symbol id="logout" viewBox="0 0 20 20">
    <path fill-rule="evenodd" clip-rule="evenodd" d="M3 17H8.5C8.77614 17 9 17.2239 9 17.5V18.5C9 18.7761 8.77614 19 8.5 19H3C1.89543 19 1 18.1046 1 17V3C1 1.89543 1.89543 1 3 1H8.5C8.77614 1 9 1.22386 9 1.5V2.5C9 2.77614 8.77614 3 8.5 3H3V17ZM13.64 4.15L18.78 9.28C18.9189 9.42172 18.9977 9.61159 19 9.81V10.19C18.9998 10.3888 18.9207 10.5795 18.78 10.72L13.64 15.85C13.5461 15.9447 13.4183 15.9979 13.285 15.9979C13.1517 15.9979 13.0239 15.9447 12.93 15.85L12.22 15.15C12.1253 15.0561 12.0721 14.9283 12.0721 14.795C12.0721 14.6617 12.1253 14.5339 12.22 14.44L15.67 11H5.5C5.22386 11 5 10.7761 5 10.5V9.5C5 9.22386 5.22386 9 5.5 9H15.67L12.22 5.56C12.1259 5.46784 12.0729 5.34169 12.0729 5.21C12.0729 5.07831 12.1259 4.95216 12.22 4.86L12.93 4.15C13.0239 4.05534 13.1517 4.0021 13.285 4.0021C13.4183 4.0021 13.5461 4.05534 13.64 4.15Z" fill="black" />
    <path d="M3 17H2.5V17.5H3V17ZM3 3V2.5H2.5V3H3ZM18.78 9.28L19.1371 8.93001L19.1332 8.9261L18.78 9.28ZM13.64 4.15L13.285 4.50211L13.2868 4.5039L13.64 4.15ZM19 9.81H19.5L19.5 9.80419L19 9.81ZM19 10.19L19.5 10.1904V10.19H19ZM18.78 10.72L19.1332 11.0739L19.1333 11.0738L18.78 10.72ZM13.64 15.85L13.2868 15.4961L13.285 15.4979L13.64 15.85ZM12.93 15.85L13.285 15.4979L13.281 15.4939L12.93 15.85ZM12.22 15.15L11.8679 15.505L11.869 15.5061L12.22 15.15ZM12.22 14.44L12.5721 14.795L12.573 14.7941L12.22 14.44ZM15.67 11L16.023 11.3541L16.8796 10.5H15.67V11ZM15.67 9V9.5H16.8796L16.023 8.64593L15.67 9ZM12.22 5.56L12.5731 5.20592L12.5699 5.20286L12.22 5.56ZM12.22 4.86L12.5699 5.21716L12.5736 5.21355L12.22 4.86ZM12.93 4.15L13.2836 4.50356L13.285 4.5021L12.93 4.15ZM8.5 16.5H3V17.5H8.5V16.5ZM9.5 17.5C9.5 16.9477 9.05229 16.5 8.5 16.5V17.5H9.5ZM9.5 18.5V17.5H8.5V18.5H9.5ZM8.5 19.5C9.05229 19.5 9.5 19.0523 9.5 18.5H8.5V19.5ZM3 19.5H8.5V18.5H3V19.5ZM0.5 17C0.5 18.3807 1.61929 19.5 3 19.5V18.5C2.17157 18.5 1.5 17.8284 1.5 17H0.5ZM0.5 3V17H1.5V3H0.5ZM3 0.5C1.61929 0.5 0.5 1.61929 0.5 3H1.5C1.5 2.17157 2.17157 1.5 3 1.5V0.5ZM8.5 0.5H3V1.5H8.5V0.5ZM9.5 1.5C9.5 0.947715 9.05229 0.5 8.5 0.5V1.5H9.5ZM9.5 2.5V1.5H8.5V2.5H9.5ZM8.5 3.5C9.05229 3.5 9.5 3.05228 9.5 2.5H8.5V3.5ZM3 3.5H8.5V2.5H3V3.5ZM3.5 17V3H2.5V17H3.5ZM19.1332 8.9261L13.9932 3.7961L13.2868 4.5039L18.4268 9.6339L19.1332 8.9261ZM19.5 9.80419C19.4962 9.47694 19.3662 9.16378 19.1371 8.93004L18.4229 9.62996C18.4716 9.67966 18.4992 9.74623 18.5 9.81581L19.5 9.80419ZM19.5 10.19V9.81H18.5V10.19H19.5ZM19.1333 11.0738C19.3678 10.8396 19.4997 10.5218 19.5 10.1904L18.5 10.1896C18.4999 10.2558 18.4736 10.3194 18.4267 10.3662L19.1333 11.0738ZM13.9932 16.2039L19.1332 11.0739L18.4268 10.3661L13.2868 15.4961L13.9932 16.2039ZM13.285 16.4979C13.5516 16.4979 13.8072 16.3914 13.995 16.2021L13.285 15.4979L13.285 15.4979V16.4979ZM12.575 16.2021C12.7628 16.3914 13.0184 16.4979 13.285 16.4979V15.4979L13.285 15.4979L12.575 16.2021ZM11.869 15.5061L12.579 16.2061L13.281 15.4939L12.571 14.7939L11.869 15.5061ZM11.5721 14.795C11.5721 15.0616 11.6786 15.3172 11.8679 15.505L12.5721 14.795L12.5721 14.795H11.5721ZM11.8679 14.085C11.6786 14.2728 11.5721 14.5284 11.5721 14.795H12.5721L12.5721 14.795L11.8679 14.085ZM15.317 10.6459L11.867 14.0859L12.573 14.7941L16.023 11.3541L15.317 10.6459ZM5.5 11.5H15.67V10.5H5.5V11.5ZM4.5 10.5C4.5 11.0523 4.94771 11.5 5.5 11.5V10.5H4.5ZM4.5 9.5V10.5H5.5V9.5H4.5ZM5.5 8.5C4.94771 8.5 4.5 8.94772 4.5 9.5H5.5V8.5ZM15.67 8.5H5.5V9.5H15.67V8.5ZM11.867 5.91407L15.317 9.35407L16.023 8.64593L12.573 5.20593L11.867 5.91407ZM11.5729 5.21C11.5729 5.47607 11.68 5.73093 11.8701 5.91714L12.5699 5.20286C12.5718 5.20474 12.5729 5.20731 12.5729 5.21H11.5729ZM11.8701 4.50286C11.68 4.68907 11.5729 4.94393 11.5729 5.21H12.5729C12.5729 5.21269 12.5718 5.21526 12.5699 5.21714L11.8701 4.50286ZM12.5764 3.79645L11.8664 4.50645L12.5736 5.21355L13.2836 4.50355L12.5764 3.79645ZM13.285 3.5021C13.0184 3.5021 12.7628 3.60859 12.575 3.7979L13.285 4.5021L13.285 4.5021V3.5021ZM13.995 3.7979C13.8072 3.60859 13.5516 3.5021 13.285 3.5021V4.5021L13.285 4.5021L13.995 3.7979Z" fill="white" />
  </symbol>
</svg>